<?xml version="1.0" encoding="utf-8" standalone="no"?>
<!DOCTYPE svg PUBLIC "-//W3C//DTD SVG 1.1//EN"
  "http://www.w3.org/Graphics/SVG/1.1/DTD/svg11.dtd">
<svg xmlns:xlink="http://www.w3.org/1999/xlink" width="459.36pt" height="354.24pt" viewBox="0 0 459.36 354.24" xmlns="http://www.w3.org/2000/svg" version="1.1">
 <metadata>
  <rdf:RDF xmlns:dc="http://purl.org/dc/elements/1.1/" xmlns:cc="http://creativecommons.org/ns#" xmlns:rdf="http://www.w3.org/1999/02/22-rdf-syntax-ns#">
   <cc:Work>
    <dc:type rdf:resource="http://purl.org/dc/dcmitype/StillImage"/>
    <dc:date>2026-07-15T12:55:04.798292</dc:date>
    <dc:format>image/svg+xml</dc:format>
    <dc:creator>
     <cc:Agent>
      <dc:title>Matplotlib v3.11.0, https://matplotlib.org/</dc:title>
     </cc:Agent>
    </dc:creator>
   </cc:Work>
  </rdf:RDF>
 </metadata>
 <defs>
  <style type="text/css">*{stroke-linejoin: round; stroke-linecap: butt}</style>
 </defs>
 <g id="figure_1">
  <g id="patch_1">
   <path d="M 0 354.24 
L 459.36 354.24 
L 459.36 0 
L 0 0 
z
" style="fill: #ffffff"/>
  </g>
  <g id="axes_1">
   <g id="legend_1">
    <g id="line2d_1">
     <path d="M 66.700687 25.301302 
L 73.900687 25.301302 
L 81.100687 25.301302 
" style="fill: none; stroke: #0072b2; stroke-width: 1.6; stroke-linecap: square"/>
    </g>
    <g id="text_1">
     <text style="font-size: 7.2px; font-family: 'Arial', 'Helvetica', 'DejaVu Sans', sans-serif; text-anchor: start" x="86.860687" y="27.821302" transform="rotate(-0 86.860687 27.821302)">fixed-action contrast dispersion</text>
    </g>
    <g id="line2d_2">
     <path d="M 200.503687 25.301302 
L 207.703687 25.301302 
L 214.903687 25.301302 
" style="fill: none; stroke-dasharray: 5.92,2.56; stroke-dashoffset: 0; stroke: #b58900; stroke-width: 1.6"/>
    </g>
    <g id="text_2">
     <text style="font-size: 7.2px; font-family: 'Arial', 'Helvetica', 'DejaVu Sans', sans-serif; text-anchor: start" x="220.663687" y="27.821302" transform="rotate(-0 220.663687 27.821302)">athlete</text>
    </g>
    <g id="line2d_3">
     <path d="M 256.679437 25.301302 
L 263.879437 25.301302 
L 271.079437 25.301302 
" style="fill: none; stroke-dasharray: 10.24,2.56,1.6,2.56; stroke-dashoffset: 0; stroke: #d55e00; stroke-width: 1.6"/>
    </g>
    <g id="text_3">
     <text style="font-size: 7.2px; font-family: 'Arial', 'Helvetica', 'DejaVu Sans', sans-serif; text-anchor: start" x="276.839437" y="27.821302" transform="rotate(-0 276.839437 27.821302)">athlete × fixed action</text>
    </g>
    <g id="line2d_4">
     <path d="M 357.480562 25.301302 
L 364.680562 25.301302 
L 371.880562 25.301302 
" style="fill: none; stroke-dasharray: 1.6,2.64; stroke-dashoffset: 0; stroke: #777777; stroke-width: 1.6"/>
    </g>
    <g id="text_4">
     <text style="font-size: 7.2px; font-family: 'Arial', 'Helvetica', 'DejaVu Sans', sans-serif; text-anchor: start" x="377.640562" y="27.821302" transform="rotate(-0 377.640562 27.821302)">within-cell unexplained</text>
    </g>
   </g>
  </g>
  <g id="axes_2">
   <g id="patch_2">
    <path d="M 64.3104 195.383241 
L 234.555663 195.383241 
L 234.555663 77.453853 
L 64.3104 77.453853 
z
" style="fill: #ffffff"/>
   </g>
   <g id="matplotlib.axis_1">
    <g id="xtick_1">
     <g id="line2d_5">
      <defs>
       <path id="m29d4917c07" d="M 0 0 
L 0 3 
" style="stroke: #000000; stroke-width: 0.8"/>
      </defs>
      <g>
       <use xlink:href="#m29d4917c07" x="64.3104" y="195.383241" style="stroke: #000000; stroke-width: 0.8"/>
      </g>
     </g>
     <g id="text_5">
      <text style="font-size: 7.2px; font-family: 'Arial', 'Helvetica', 'DejaVu Sans', sans-serif; text-anchor: middle" x="64.3104" y="207.125038" transform="rotate(-0 64.3104 207.125038)">0</text>
     </g>
    </g>
    <g id="xtick_2">
     <g id="line2d_6">
      <g>
       <use xlink:href="#m29d4917c07" x="98.359453" y="195.383241" style="stroke: #000000; stroke-width: 0.8"/>
      </g>
     </g>
     <g id="text_6">
      <text style="font-size: 7.2px; font-family: 'Arial', 'Helvetica', 'DejaVu Sans', sans-serif; text-anchor: middle" x="98.359453" y="207.125038" transform="rotate(-0 98.359453 207.125038)">20</text>
     </g>
    </g>
    <g id="xtick_3">
     <g id="line2d_7">
      <g>
       <use xlink:href="#m29d4917c07" x="132.408505" y="195.383241" style="stroke: #000000; stroke-width: 0.8"/>
      </g>
     </g>
     <g id="text_7">
      <text style="font-size: 7.2px; font-family: 'Arial', 'Helvetica', 'DejaVu Sans', sans-serif; text-anchor: middle" x="132.408505" y="207.125038" transform="rotate(-0 132.408505 207.125038)">40</text>
     </g>
    </g>
    <g id="xtick_4">
     <g id="line2d_8">
      <g>
       <use xlink:href="#m29d4917c07" x="166.457558" y="195.383241" style="stroke: #000000; stroke-width: 0.8"/>
      </g>
     </g>
     <g id="text_8">
      <text style="font-size: 7.2px; font-family: 'Arial', 'Helvetica', 'DejaVu Sans', sans-serif; text-anchor: middle" x="166.457558" y="207.125038" transform="rotate(-0 166.457558 207.125038)">60</text>
     </g>
    </g>
    <g id="xtick_5">
     <g id="line2d_9">
      <g>
       <use xlink:href="#m29d4917c07" x="200.506611" y="195.383241" style="stroke: #000000; stroke-width: 0.8"/>
      </g>
     </g>
     <g id="text_9">
      <text style="font-size: 7.2px; font-family: 'Arial', 'Helvetica', 'DejaVu Sans', sans-serif; text-anchor: middle" x="200.506611" y="207.125038" transform="rotate(-0 200.506611 207.125038)">80</text>
     </g>
    </g>
    <g id="xtick_6">
     <g id="line2d_10">
      <g>
       <use xlink:href="#m29d4917c07" x="234.555663" y="195.383241" style="stroke: #000000; stroke-width: 0.8"/>
      </g>
     </g>
     <g id="text_10">
      <text style="font-size: 7.2px; font-family: 'Arial', 'Helvetica', 'DejaVu Sans', sans-serif; text-anchor: middle" x="234.555663" y="207.125038" transform="rotate(-0 234.555663 207.125038)">100</text>
     </g>
    </g>
    <g id="text_11">
     <text style="font-size: 7.8px; font-family: 'Arial', 'Helvetica', 'DejaVu Sans', sans-serif; text-anchor: middle" x="149.433032" y="218.318885" transform="rotate(-0 149.433032 218.318885)">Normalized time (%)</text>
    </g>
   </g>
   <g id="matplotlib.axis_2">
    <g id="ytick_1">
     <g id="line2d_11">
      <path d="M 64.3104 195.383241 
L 234.555663 195.383241 
" clip-path="url(#p385039097a)" style="fill: none; stroke: #e1e1e1; stroke-width: 0.55; stroke-linecap: square"/>
     </g>
     <g id="line2d_12">
      <defs>
       <path id="m9a08cc84c5" d="M 0 0 
L -3 0 
" style="stroke: #000000; stroke-width: 0.8"/>
      </defs>
      <g>
       <use xlink:href="#m9a08cc84c5" x="64.3104" y="195.383241" style="stroke: #000000; stroke-width: 0.8"/>
      </g>
     </g>
     <g id="text_12">
      <text style="font-size: 7.2px; font-family: 'Arial', 'Helvetica', 'DejaVu Sans', sans-serif; text-anchor: end" x="57.8104" y="198.004139" transform="rotate(-0 57.8104 198.004139)">0.0</text>
     </g>
    </g>
    <g id="ytick_2">
     <g id="line2d_13">
      <path d="M 64.3104 171.797363 
L 234.555663 171.797363 
" clip-path="url(#p385039097a)" style="fill: none; stroke: #e1e1e1; stroke-width: 0.55; stroke-linecap: square"/>
     </g>
     <g id="line2d_14">
      <g>
       <use xlink:href="#m9a08cc84c5" x="64.3104" y="171.797363" style="stroke: #000000; stroke-width: 0.8"/>
      </g>
     </g>
     <g id="text_13">
      <text style="font-size: 7.2px; font-family: 'Arial', 'Helvetica', 'DejaVu Sans', sans-serif; text-anchor: end" x="57.8104" y="174.418262" transform="rotate(-0 57.8104 174.418262)">0.2</text>
     </g>
    </g>
    <g id="ytick_3">
     <g id="line2d_15">
      <path d="M 64.3104 148.211486 
L 234.555663 148.211486 
" clip-path="url(#p385039097a)" style="fill: none; stroke: #e1e1e1; stroke-width: 0.55; stroke-linecap: square"/>
     </g>
     <g id="line2d_16">
      <g>
       <use xlink:href="#m9a08cc84c5" x="64.3104" y="148.211486" style="stroke: #000000; stroke-width: 0.8"/>
      </g>
     </g>
     <g id="text_14">
      <text style="font-size: 7.2px; font-family: 'Arial', 'Helvetica', 'DejaVu Sans', sans-serif; text-anchor: end" x="57.8104" y="150.832384" transform="rotate(-0 57.8104 150.832384)">0.4</text>
     </g>
    </g>
    <g id="ytick_4">
     <g id="line2d_17">
      <path d="M 64.3104 124.625608 
L 234.555663 124.625608 
" clip-path="url(#p385039097a)" style="fill: none; stroke: #e1e1e1; stroke-width: 0.55; stroke-linecap: square"/>
     </g>
     <g id="line2d_18">
      <g>
       <use xlink:href="#m9a08cc84c5" x="64.3104" y="124.625608" style="stroke: #000000; stroke-width: 0.8"/>
      </g>
     </g>
     <g id="text_15">
      <text style="font-size: 7.2px; font-family: 'Arial', 'Helvetica', 'DejaVu Sans', sans-serif; text-anchor: end" x="57.8104" y="127.246507" transform="rotate(-0 57.8104 127.246507)">0.6</text>
     </g>
    </g>
    <g id="ytick_5">
     <g id="line2d_19">
      <path d="M 64.3104 101.039731 
L 234.555663 101.039731 
" clip-path="url(#p385039097a)" style="fill: none; stroke: #e1e1e1; stroke-width: 0.55; stroke-linecap: square"/>
     </g>
     <g id="line2d_20">
      <g>
       <use xlink:href="#m9a08cc84c5" x="64.3104" y="101.039731" style="stroke: #000000; stroke-width: 0.8"/>
      </g>
     </g>
     <g id="text_16">
      <text style="font-size: 7.2px; font-family: 'Arial', 'Helvetica', 'DejaVu Sans', sans-serif; text-anchor: end" x="57.8104" y="103.660629" transform="rotate(-0 57.8104 103.660629)">0.8</text>
     </g>
    </g>
    <g id="ytick_6">
     <g id="line2d_21">
      <path d="M 64.3104 77.453853 
L 234.555663 77.453853 
" clip-path="url(#p385039097a)" style="fill: none; stroke: #e1e1e1; stroke-width: 0.55; stroke-linecap: square"/>
     </g>
     <g id="line2d_22">
      <g>
       <use xlink:href="#m9a08cc84c5" x="64.3104" y="77.453853" style="stroke: #000000; stroke-width: 0.8"/>
      </g>
     </g>
     <g id="text_17">
      <text style="font-size: 7.2px; font-family: 'Arial', 'Helvetica', 'DejaVu Sans', sans-serif; text-anchor: end" x="57.8104" y="80.074751" transform="rotate(-0 57.8104 80.074751)">1.0</text>
     </g>
    </g>
    <g id="text_18">
     <text style="font-size: 7.8px; font-family: 'Arial', 'Helvetica', 'DejaVu Sans', sans-serif; text-anchor: middle" x="42.160896" y="136.418547" transform="rotate(-90 42.160896 136.418547)">Local proportion</text>
    </g>
   </g>
   <g id="line2d_23">
    <path d="M 64.3104 161.300549 
L 66.021408 160.759713 
L 66.876912 160.737902 
L 68.587919 160.313839 
L 70.298927 159.510609 
L 72.009935 159.141162 
L 73.720942 158.828691 
L 77.998461 158.504742 
L 79.709469 158.470097 
L 80.564973 158.244797 
L 81.420477 158.45388 
L 82.275981 159.965642 
L 83.131484 159.94008 
L 84.842492 159.371221 
L 85.697996 158.879193 
L 86.5535 159.176967 
L 88.264507 157.824175 
L 89.975515 156.079917 
L 90.831019 154.754434 
L 91.686523 152.029942 
L 93.39753 149.586768 
L 95.108538 147.197138 
L 95.964042 145.221512 
L 97.67505 143.128227 
L 98.530553 144.811283 
L 100.241561 143.125934 
L 101.952569 141.868662 
L 102.808073 141.447973 
L 103.663576 141.173132 
L 104.51908 141.048616 
L 105.374584 141.105613 
L 106.230088 141.377962 
L 107.085592 141.891871 
L 107.941096 139.951017 
L 108.796599 140.840017 
L 110.507607 143.539772 
L 111.363111 145.110833 
L 113.074119 149.021018 
L 114.785126 153.7995 
L 121.629157 174.51545 
L 123.340165 178.394439 
L 124.195668 179.97489 
L 125.051172 181.202953 
L 125.906676 182.219364 
L 126.76218 182.931884 
L 127.617684 183.40421 
L 128.473188 183.654837 
L 129.328691 183.652231 
L 131.039699 183.287355 
L 132.750707 182.406876 
L 138.739234 178.223433 
L 142.161249 175.407887 
L 143.872257 173.694866 
L 144.72776 172.770096 
L 147.294272 169.418896 
L 149.00528 166.565408 
L 149.860783 165.334577 
L 152.427295 160.690425 
L 154.993807 155.129605 
L 155.84931 153.474456 
L 159.271326 145.806607 
L 160.982333 144.133808 
L 161.837837 142.994738 
L 163.548845 141.525993 
L 164.404349 141.184937 
L 165.259853 141.09852 
L 166.115356 141.201001 
L 167.826364 142.174552 
L 168.681868 143.019088 
L 170.392876 144.116464 
L 172.103883 146.771944 
L 172.959387 148.359124 
L 174.670395 151.039837 
L 175.525899 153.651915 
L 176.381402 155.49972 
L 178.947914 161.81982 
L 179.803418 163.659146 
L 180.658922 166.261292 
L 184.080937 174.436616 
L 184.936441 175.539589 
L 185.791945 177.340539 
L 186.647448 178.849955 
L 187.502952 179.964167 
L 189.21396 182.415695 
L 190.069464 182.781634 
L 191.780471 184.418389 
L 194.346983 185.6903 
L 196.057991 185.596461 
L 196.913494 185.373519 
L 197.768998 185.004644 
L 199.480006 183.899834 
L 200.33551 183.10061 
L 202.046517 181.011107 
L 205.468533 175.073471 
L 208.035044 169.718629 
L 214.023571 156.110575 
L 215.734579 152.746681 
L 217.445586 149.850528 
L 219.156594 147.541772 
L 220.867602 145.822312 
L 221.723106 145.18035 
L 222.578609 144.684094 
L 224.289617 144.241983 
L 225.145121 144.158626 
L 226.856129 144.377871 
L 227.711632 144.637108 
L 229.42264 145.598604 
L 230.278144 146.273712 
L 233.700159 147.469001 
L 234.555663 147.894455 
L 234.555663 147.894455 
" clip-path="url(#p385039097a)" style="fill: none; stroke: #0072b2; stroke-width: 1.45; stroke-linecap: square"/>
   </g>
   <g id="line2d_24">
    <path d="M 64.3104 183.803302 
L 66.021408 184.375563 
L 67.732415 185.080326 
L 68.587919 185.386989 
L 71.154431 187.198166 
L 74.576446 189.545665 
L 76.287454 190.470817 
L 77.998461 191.269031 
L 79.709469 191.882927 
L 83.131484 192.677618 
L 85.697996 192.774405 
L 87.409004 192.74372 
L 90.831019 192.378056 
L 92.542027 192.026272 
L 97.67505 191.315299 
L 98.530553 191.447851 
L 101.952569 191.168384 
L 104.51908 191.139049 
L 107.085592 191.233706 
L 107.941096 191.066599 
L 121.629157 192.028999 
L 124.195668 192.101357 
L 127.617684 192.050234 
L 132.750707 192.219838 
L 136.172722 192.354008 
L 140.450241 192.844684 
L 142.161249 193.186646 
L 146.438768 194.498529 
L 149.860783 195.215734 
L 150.716287 195.355936 
L 154.138303 195.37937 
L 157.560318 195.206132 
L 164.404349 194.604858 
L 167.826364 194.596419 
L 170.392876 194.660817 
L 172.103883 194.514175 
L 175.525899 193.84193 
L 178.09241 193.003327 
L 179.803418 192.392032 
L 180.658922 192.286701 
L 183.225433 191.686164 
L 185.791945 191.331181 
L 189.21396 191.255814 
L 190.069464 191.029586 
L 194.346983 190.651942 
L 202.046517 188.476171 
L 203.757525 188.005496 
L 206.324037 187.744843 
L 208.890548 187.702467 
L 213.168067 188.10247 
L 218.30109 189.01826 
L 223.434113 189.781171 
L 226.000625 189.875728 
L 228.567136 189.680892 
L 231.133648 189.275325 
L 234.555663 188.865156 
L 234.555663 188.865156 
" clip-path="url(#p385039097a)" style="fill: none; stroke-dasharray: 5.365,2.32; stroke-dashoffset: 0; stroke: #b58900; stroke-width: 1.45"/>
   </g>
   <g id="line2d_25">
    <path d="M 64.3104 152.960276 
L 66.021408 152.96222 
L 66.876912 153.216094 
L 70.298927 152.950487 
L 71.154431 153.018495 
L 72.865438 152.737862 
L 75.43195 152.117086 
L 76.287454 151.665849 
L 80.564973 150.629362 
L 81.420477 150.919854 
L 82.275981 152.822019 
L 83.131484 153.102013 
L 83.986988 153.236336 
L 85.697996 153.821054 
L 86.5535 154.982161 
L 88.264507 155.99248 
L 89.975515 157.255927 
L 90.831019 157.580557 
L 91.686523 156.439318 
L 92.542027 157.022649 
L 95.108538 159.495779 
L 95.964042 159.573067 
L 97.67505 161.284492 
L 98.530553 163.571125 
L 101.097065 165.786843 
L 102.808073 166.97985 
L 104.51908 167.916206 
L 106.230088 168.504626 
L 107.085592 168.632957 
L 107.941096 167.247053 
L 109.652103 167.138309 
L 111.363111 166.414022 
L 113.074119 165.316316 
L 114.785126 163.986572 
L 116.496134 162.341999 
L 119.062645 159.790273 
L 121.629157 158.605247 
L 124.195668 158.751752 
L 125.051172 158.977461 
L 127.617684 160.490788 
L 128.473188 161.001908 
L 129.328691 161.163777 
L 131.039699 161.946097 
L 131.895203 161.723505 
L 133.606211 161.586843 
L 134.461714 161.342713 
L 135.317218 160.901795 
L 136.172722 160.807779 
L 137.88373 160.354704 
L 138.739234 160.506974 
L 140.450241 159.63875 
L 141.305745 159.544165 
L 142.161249 159.653101 
L 143.016753 159.60918 
L 144.72776 159.889122 
L 145.583264 159.717597 
L 147.294272 160.08433 
L 148.149776 159.868642 
L 150.716287 161.445506 
L 152.427295 162.490201 
L 153.282799 162.9592 
L 154.138303 163.665909 
L 154.993807 164.566263 
L 156.704814 166.105322 
L 158.415822 167.969882 
L 159.271326 168.635667 
L 160.12683 169.571291 
L 161.837837 170.34643 
L 162.693341 170.597869 
L 163.548845 170.452204 
L 165.259853 169.4338 
L 166.115356 168.489818 
L 166.97086 167.364755 
L 168.681868 164.261066 
L 172.959387 155.587301 
L 174.670395 152.381882 
L 175.525899 152.333561 
L 176.381402 151.04591 
L 177.236906 150.231063 
L 178.09241 150.077758 
L 179.803418 148.198033 
L 180.658922 149.096246 
L 182.369929 148.02287 
L 184.080937 147.383552 
L 184.936441 145.899707 
L 185.791945 146.32415 
L 186.647448 146.316436 
L 187.502952 145.940803 
L 188.358456 146.56916 
L 189.21396 147.409229 
L 190.069464 146.925222 
L 190.924968 148.26806 
L 191.780471 150.036986 
L 192.635975 151.477386 
L 193.491479 153.745613 
L 194.346983 155.470577 
L 196.913494 158.27227 
L 197.768998 158.847266 
L 198.624502 159.00685 
L 199.480006 158.964783 
L 200.33551 158.475994 
L 202.046517 156.487996 
L 202.902021 154.538012 
L 204.613029 151.937481 
L 206.324037 149.823119 
L 207.17954 148.986884 
L 208.890548 147.789144 
L 209.746052 147.606878 
L 210.601556 147.685707 
L 211.45706 147.981238 
L 213.168067 149.048989 
L 214.879075 150.505943 
L 219.156594 154.310714 
L 220.867602 155.372787 
L 223.434113 156.389215 
L 225.145121 156.624137 
L 226.856129 156.565851 
L 229.42264 156.031409 
L 230.278144 155.786947 
L 231.989152 155.553268 
L 233.700159 155.16747 
L 234.555663 155.023303 
L 234.555663 155.023303 
" clip-path="url(#p385039097a)" style="fill: none; stroke-dasharray: 9.28,2.32,1.45,2.32; stroke-dashoffset: 0; stroke: #d55e00; stroke-width: 1.45"/>
   </g>
   <g id="line2d_26">
    <path d="M 64.3104 165.539449 
L 66.021408 165.50608 
L 66.876912 164.880086 
L 68.587919 164.84548 
L 70.298927 164.583823 
L 71.154431 164.022775 
L 74.576446 162.96508 
L 75.43195 162.716475 
L 76.287454 162.94319 
L 78.853965 162.403433 
L 79.709469 162.303999 
L 80.564973 162.640139 
L 81.420477 161.93098 
L 82.275981 158.254565 
L 83.131484 157.883865 
L 83.986988 157.980036 
L 84.842492 157.910513 
L 85.697996 158.128923 
L 86.5535 156.655658 
L 88.264507 157.116491 
L 89.975515 157.764758 
L 90.831019 158.890529 
L 91.686523 162.984557 
L 92.542027 163.83049 
L 93.39753 164.244673 
L 94.253034 164.87539 
L 95.108538 165.237283 
L 95.964042 167.293372 
L 96.819546 167.692873 
L 97.67505 167.875557 
L 98.530553 163.773317 
L 100.241561 164.102522 
L 101.952569 164.150375 
L 103.663576 163.811981 
L 105.374584 163.074422 
L 107.085592 161.845041 
L 107.941096 165.338906 
L 108.796599 164.427623 
L 109.652103 163.076493 
L 111.363111 160.723765 
L 113.074119 157.757446 
L 116.496134 150.434027 
L 119.062645 144.838757 
L 119.918149 142.44612 
L 123.340165 134.54523 
L 124.195668 132.775576 
L 126.76218 128.668627 
L 127.617684 127.658343 
L 128.473188 126.855335 
L 129.328691 126.702397 
L 130.184195 126.398987 
L 131.039699 126.214477 
L 131.895203 126.845715 
L 132.750707 127.292795 
L 134.461714 128.782086 
L 135.317218 129.837636 
L 136.172722 130.410992 
L 137.88373 131.975908 
L 138.739234 132.228791 
L 140.450241 134.309875 
L 141.305745 135.033283 
L 142.161249 135.355941 
L 143.872257 136.398086 
L 144.72776 136.903376 
L 145.583264 137.986173 
L 146.438768 138.580559 
L 147.294272 139.406954 
L 148.149776 140.942486 
L 149.00528 141.657292 
L 149.860783 142.093963 
L 152.427295 145.039709 
L 153.282799 146.516273 
L 154.138303 147.749307 
L 154.993807 148.548465 
L 155.84931 149.507262 
L 157.560318 151.759488 
L 158.415822 152.720014 
L 159.271326 154.161272 
L 160.12683 154.134194 
L 160.982333 154.62531 
L 161.837837 155.490444 
L 162.693341 156.094684 
L 164.404349 157.850178 
L 165.259853 158.491603 
L 166.115356 159.339841 
L 166.97086 159.964899 
L 167.826364 160.917276 
L 168.681868 161.686061 
L 170.392876 164.10567 
L 172.103883 165.090585 
L 172.959387 165.28388 
L 174.670395 166.191781 
L 175.525899 163.776169 
L 176.381402 163.471024 
L 177.236906 162.441934 
L 178.09241 160.495693 
L 178.947914 160.041168 
L 179.803418 159.354364 
L 180.658922 155.959337 
L 182.369929 153.304609 
L 184.080937 150.239123 
L 184.936441 150.789362 
L 185.791945 148.607705 
L 186.647448 147.101655 
L 187.502952 146.389754 
L 189.21396 142.522837 
L 190.069464 142.867133 
L 192.635975 136.440225 
L 193.491479 133.647009 
L 194.346983 131.790756 
L 196.057991 130.41167 
L 196.913494 130.046721 
L 197.768998 130.096878 
L 198.624502 130.719731 
L 199.480006 131.567081 
L 200.33551 133.106793 
L 202.046517 137.628302 
L 202.902021 141.320783 
L 204.613029 147.116194 
L 207.17954 155.342821 
L 208.890548 160.371753 
L 210.601556 164.319378 
L 212.312563 167.316032 
L 214.023571 169.511965 
L 215.734579 171.020082 
L 216.590083 171.580238 
L 217.445586 172.003534 
L 220.012098 172.773071 
L 222.578609 173.156386 
L 223.434113 172.980664 
L 225.145121 172.950078 
L 229.42264 172.443746 
L 230.278144 172.193095 
L 231.989152 171.970805 
L 232.844655 172.091083 
L 234.555663 171.82066 
L 234.555663 171.82066 
" clip-path="url(#p385039097a)" style="fill: none; stroke-dasharray: 1.45,2.3925; stroke-dashoffset: 0; stroke: #777777; stroke-width: 1.45"/>
   </g>
   <g id="patch_3">
    <path d="M 64.3104 195.383241 
L 64.3104 77.453853 
" style="fill: none; stroke: #000000; stroke-width: 0.8; stroke-linejoin: miter; stroke-linecap: square"/>
   </g>
   <g id="patch_4">
    <path d="M 64.3104 195.383241 
L 234.555663 195.383241 
" style="fill: none; stroke: #000000; stroke-width: 0.8; stroke-linejoin: miter; stroke-linecap: square"/>
   </g>
   <g id="text_19">
    <text style="font-size: 7.2px; font-family: 'Arial', 'Helvetica', 'DejaVu Sans', sans-serif; text-anchor: end; fill: #555555" x="232.853211" y="87.412825" transform="rotate(-0 232.853211 87.412825)">11-node smoothing for display only</text>
   </g>
   <g id="text_20">
    <text style="font-weight: 700; font-size: 8.6px; font-family: 'Arial', 'Helvetica', 'DejaVu Sans', sans-serif; text-anchor: start" x="47.285874" y="70.926814" transform="rotate(-0 47.285874 70.926814)">a</text>
   </g>
   <g id="text_21">
    <text style="font-size: 8.4px; font-family: 'Arial', 'Helvetica', 'DejaVu Sans', sans-serif; text-anchor: middle" x="149.433032" y="71.453853" transform="rotate(-0 149.433032 71.453853)">Racket displacement magnitude</text>
   </g>
  </g>
  <g id="axes_3">
   <g id="patch_5">
    <path d="M 282.224337 195.383241 
L 452.4696 195.383241 
L 452.4696 77.453853 
L 282.224337 77.453853 
z
" style="fill: #ffffff"/>
   </g>
   <g id="matplotlib.axis_3">
    <g id="xtick_7">
     <g id="line2d_27">
      <g>
       <use xlink:href="#m29d4917c07" x="282.224337" y="195.383241" style="stroke: #000000; stroke-width: 0.8"/>
      </g>
     </g>
     <g id="text_22">
      <text style="font-size: 7.2px; font-family: 'Arial', 'Helvetica', 'DejaVu Sans', sans-serif; text-anchor: middle" x="282.224337" y="207.125038" transform="rotate(-0 282.224337 207.125038)">0</text>
     </g>
    </g>
    <g id="xtick_8">
     <g id="line2d_28">
      <g>
       <use xlink:href="#m29d4917c07" x="316.273389" y="195.383241" style="stroke: #000000; stroke-width: 0.8"/>
      </g>
     </g>
     <g id="text_23">
      <text style="font-size: 7.2px; font-family: 'Arial', 'Helvetica', 'DejaVu Sans', sans-serif; text-anchor: middle" x="316.273389" y="207.125038" transform="rotate(-0 316.273389 207.125038)">20</text>
     </g>
    </g>
    <g id="xtick_9">
     <g id="line2d_29">
      <g>
       <use xlink:href="#m29d4917c07" x="350.322442" y="195.383241" style="stroke: #000000; stroke-width: 0.8"/>
      </g>
     </g>
     <g id="text_24">
      <text style="font-size: 7.2px; font-family: 'Arial', 'Helvetica', 'DejaVu Sans', sans-serif; text-anchor: middle" x="350.322442" y="207.125038" transform="rotate(-0 350.322442 207.125038)">40</text>
     </g>
    </g>
    <g id="xtick_10">
     <g id="line2d_30">
      <g>
       <use xlink:href="#m29d4917c07" x="384.371495" y="195.383241" style="stroke: #000000; stroke-width: 0.8"/>
      </g>
     </g>
     <g id="text_25">
      <text style="font-size: 7.2px; font-family: 'Arial', 'Helvetica', 'DejaVu Sans', sans-serif; text-anchor: middle" x="384.371495" y="207.125038" transform="rotate(-0 384.371495 207.125038)">60</text>
     </g>
    </g>
    <g id="xtick_11">
     <g id="line2d_31">
      <g>
       <use xlink:href="#m29d4917c07" x="418.420547" y="195.383241" style="stroke: #000000; stroke-width: 0.8"/>
      </g>
     </g>
     <g id="text_26">
      <text style="font-size: 7.2px; font-family: 'Arial', 'Helvetica', 'DejaVu Sans', sans-serif; text-anchor: middle" x="418.420547" y="207.125038" transform="rotate(-0 418.420547 207.125038)">80</text>
     </g>
    </g>
    <g id="xtick_12">
     <g id="line2d_32">
      <g>
       <use xlink:href="#m29d4917c07" x="452.4696" y="195.383241" style="stroke: #000000; stroke-width: 0.8"/>
      </g>
     </g>
     <g id="text_27">
      <text style="font-size: 7.2px; font-family: 'Arial', 'Helvetica', 'DejaVu Sans', sans-serif; text-anchor: middle" x="452.4696" y="207.125038" transform="rotate(-0 452.4696 207.125038)">100</text>
     </g>
    </g>
    <g id="text_28">
     <text style="font-size: 7.8px; font-family: 'Arial', 'Helvetica', 'DejaVu Sans', sans-serif; text-anchor: middle" x="367.346968" y="218.318885" transform="rotate(-0 367.346968 218.318885)">Normalized time (%)</text>
    </g>
   </g>
   <g id="matplotlib.axis_4">
    <g id="ytick_7">
     <g id="line2d_33">
      <path d="M 282.224337 195.383241 
L 452.4696 195.383241 
" clip-path="url(#pffc56e463f)" style="fill: none; stroke: #e1e1e1; stroke-width: 0.55; stroke-linecap: square"/>
     </g>
     <g id="line2d_34">
      <g>
       <use xlink:href="#m9a08cc84c5" x="282.224337" y="195.383241" style="stroke: #000000; stroke-width: 0.8"/>
      </g>
     </g>
     <g id="text_29">
      <text style="font-size: 7.2px; font-family: 'Arial', 'Helvetica', 'DejaVu Sans', sans-serif; text-anchor: end" x="275.724337" y="198.004139" transform="rotate(-0 275.724337 198.004139)">0.0</text>
     </g>
    </g>
    <g id="ytick_8">
     <g id="line2d_35">
      <path d="M 282.224337 171.797363 
L 452.4696 171.797363 
" clip-path="url(#pffc56e463f)" style="fill: none; stroke: #e1e1e1; stroke-width: 0.55; stroke-linecap: square"/>
     </g>
     <g id="line2d_36">
      <g>
       <use xlink:href="#m9a08cc84c5" x="282.224337" y="171.797363" style="stroke: #000000; stroke-width: 0.8"/>
      </g>
     </g>
     <g id="text_30">
      <text style="font-size: 7.2px; font-family: 'Arial', 'Helvetica', 'DejaVu Sans', sans-serif; text-anchor: end" x="275.724337" y="174.418262" transform="rotate(-0 275.724337 174.418262)">0.2</text>
     </g>
    </g>
    <g id="ytick_9">
     <g id="line2d_37">
      <path d="M 282.224337 148.211486 
L 452.4696 148.211486 
" clip-path="url(#pffc56e463f)" style="fill: none; stroke: #e1e1e1; stroke-width: 0.55; stroke-linecap: square"/>
     </g>
     <g id="line2d_38">
      <g>
       <use xlink:href="#m9a08cc84c5" x="282.224337" y="148.211486" style="stroke: #000000; stroke-width: 0.8"/>
      </g>
     </g>
     <g id="text_31">
      <text style="font-size: 7.2px; font-family: 'Arial', 'Helvetica', 'DejaVu Sans', sans-serif; text-anchor: end" x="275.724337" y="150.832384" transform="rotate(-0 275.724337 150.832384)">0.4</text>
     </g>
    </g>
    <g id="ytick_10">
     <g id="line2d_39">
      <path d="M 282.224337 124.625608 
L 452.4696 124.625608 
" clip-path="url(#pffc56e463f)" style="fill: none; stroke: #e1e1e1; stroke-width: 0.55; stroke-linecap: square"/>
     </g>
     <g id="line2d_40">
      <g>
       <use xlink:href="#m9a08cc84c5" x="282.224337" y="124.625608" style="stroke: #000000; stroke-width: 0.8"/>
      </g>
     </g>
     <g id="text_32">
      <text style="font-size: 7.2px; font-family: 'Arial', 'Helvetica', 'DejaVu Sans', sans-serif; text-anchor: end" x="275.724337" y="127.246507" transform="rotate(-0 275.724337 127.246507)">0.6</text>
     </g>
    </g>
    <g id="ytick_11">
     <g id="line2d_41">
      <path d="M 282.224337 101.039731 
L 452.4696 101.039731 
" clip-path="url(#pffc56e463f)" style="fill: none; stroke: #e1e1e1; stroke-width: 0.55; stroke-linecap: square"/>
     </g>
     <g id="line2d_42">
      <g>
       <use xlink:href="#m9a08cc84c5" x="282.224337" y="101.039731" style="stroke: #000000; stroke-width: 0.8"/>
      </g>
     </g>
     <g id="text_33">
      <text style="font-size: 7.2px; font-family: 'Arial', 'Helvetica', 'DejaVu Sans', sans-serif; text-anchor: end" x="275.724337" y="103.660629" transform="rotate(-0 275.724337 103.660629)">0.8</text>
     </g>
    </g>
    <g id="ytick_12">
     <g id="line2d_43">
      <path d="M 282.224337 77.453853 
L 452.4696 77.453853 
" clip-path="url(#pffc56e463f)" style="fill: none; stroke: #e1e1e1; stroke-width: 0.55; stroke-linecap: square"/>
     </g>
     <g id="line2d_44">
      <g>
       <use xlink:href="#m9a08cc84c5" x="282.224337" y="77.453853" style="stroke: #000000; stroke-width: 0.8"/>
      </g>
     </g>
     <g id="text_34">
      <text style="font-size: 7.2px; font-family: 'Arial', 'Helvetica', 'DejaVu Sans', sans-serif; text-anchor: end" x="275.724337" y="80.074751" transform="rotate(-0 275.724337 80.074751)">1.0</text>
     </g>
    </g>
    <g id="text_35">
     <text style="font-size: 7.8px; font-family: 'Arial', 'Helvetica', 'DejaVu Sans', sans-serif; text-anchor: middle" x="260.074833" y="136.418547" transform="rotate(-90 260.074833 136.418547)">Local proportion</text>
    </g>
   </g>
   <g id="line2d_45">
    <path d="M 282.224337 154.909849 
L 283.935345 154.497235 
L 284.790848 154.556137 
L 289.068368 153.784829 
L 290.779375 153.731401 
L 295.912398 154.035547 
L 296.767902 154.019353 
L 298.47891 153.749896 
L 299.334414 153.777157 
L 300.189917 154.71946 
L 301.045421 154.777064 
L 302.756429 154.266804 
L 305.32294 153.135738 
L 307.889452 151.417868 
L 308.744956 150.645224 
L 309.60046 149.019732 
L 310.455963 148.318836 
L 312.166971 147.35315 
L 313.877979 146.483551 
L 314.733483 145.978902 
L 315.588986 145.7419 
L 316.44449 148.131273 
L 319.011002 147.095661 
L 321.577513 145.757794 
L 323.288521 144.955373 
L 324.999529 144.362801 
L 325.855032 141.486121 
L 327.56604 141.321683 
L 329.277048 141.480263 
L 330.988055 142.020912 
L 332.699063 142.990753 
L 334.410071 144.343802 
L 336.976582 146.788122 
L 339.543094 149.179094 
L 341.254101 150.471978 
L 342.965109 151.361379 
L 345.531621 152.14058 
L 347.242628 152.046366 
L 348.953636 151.737176 
L 350.664644 151.221542 
L 353.231155 150.179656 
L 354.086659 149.549893 
L 355.797667 148.582808 
L 357.508674 147.357192 
L 359.219682 145.875087 
L 360.93069 143.8825 
L 362.641697 141.402188 
L 364.352705 138.426739 
L 366.063713 134.998097 
L 367.77472 131.191408 
L 372.05224 121.431408 
L 373.763247 117.951631 
L 375.474255 114.99353 
L 377.185263 112.693004 
L 378.040766 111.834719 
L 378.89627 111.186238 
L 379.751774 110.764883 
L 380.607278 110.571854 
L 381.462782 110.612014 
L 382.318286 110.8934 
L 383.173789 111.41717 
L 384.029293 112.183102 
L 384.884797 113.20102 
L 385.740301 114.454066 
L 387.451309 117.583417 
L 389.162316 121.454632 
L 390.873324 125.893247 
L 391.728828 128.266293 
L 392.584332 130.98649 
L 393.439835 135.485215 
L 398.572858 150.309925 
L 400.283866 154.698798 
L 401.13937 156.677514 
L 401.994874 158.20985 
L 402.850378 157.794113 
L 403.705881 159.141068 
L 404.561385 160.219978 
L 405.416889 161.018522 
L 406.272393 161.507411 
L 407.127897 161.678103 
L 407.983401 161.543517 
L 408.838904 161.115657 
L 409.694408 160.425373 
L 410.549912 159.508552 
L 412.26092 157.156182 
L 417.393943 149.208936 
L 419.10495 147.201021 
L 420.815958 145.739083 
L 422.526966 144.830799 
L 424.237973 144.406871 
L 425.948981 144.428142 
L 427.659989 144.814281 
L 429.370996 145.438617 
L 434.504019 147.640865 
L 436.215027 147.932143 
L 437.070531 147.914546 
L 438.781539 147.535911 
L 440.492546 146.743765 
L 444.770065 144.221322 
L 445.625569 143.903831 
L 446.481073 143.711397 
L 447.336577 143.69082 
L 448.192081 143.806623 
L 449.903088 143.801515 
L 451.614096 144.072524 
L 452.4696 144.294853 
L 452.4696 144.294853 
" clip-path="url(#pffc56e463f)" style="fill: none; stroke: #0072b2; stroke-width: 1.45; stroke-linecap: square"/>
   </g>
   <g id="line2d_46">
    <path d="M 282.224337 181.700838 
L 283.935345 181.975355 
L 285.646352 182.497455 
L 287.35736 183.064437 
L 289.923871 184.291089 
L 291.634879 185.016189 
L 293.345887 185.425235 
L 295.056894 185.323768 
L 296.767902 184.981416 
L 299.334414 184.198374 
L 300.189917 184.253467 
L 302.756429 184.017315 
L 304.467437 184.250184 
L 307.033948 185.064127 
L 308.744956 185.740736 
L 309.60046 185.817522 
L 313.877979 187.373161 
L 315.588986 187.774921 
L 316.44449 188.273027 
L 319.011002 188.565174 
L 322.433017 188.596304 
L 324.999529 188.551978 
L 325.855032 188.196814 
L 330.132552 188.037789 
L 339.543094 187.520623 
L 342.109605 187.858263 
L 344.676117 188.522523 
L 348.953636 189.669965 
L 353.231155 190.491663 
L 354.942163 190.82704 
L 357.508674 191.590949 
L 366.063713 194.664803 
L 367.77472 194.942167 
L 369.485728 195.045157 
L 372.05224 194.901037 
L 374.618751 194.47761 
L 385.740301 192.194976 
L 395.150843 190.550949 
L 399.428362 189.191309 
L 401.994874 188.220161 
L 402.850378 187.649651 
L 407.983401 185.804083 
L 415.682935 183.082455 
L 420.815958 181.17216 
L 423.38247 180.45194 
L 425.948981 180.046285 
L 428.515493 179.968922 
L 430.2265 180.111532 
L 432.793012 180.589039 
L 435.359523 181.346661 
L 438.781539 182.665519 
L 444.770065 185.143268 
L 447.336577 185.87622 
L 449.047585 186.168661 
L 451.614096 186.402099 
L 452.4696 186.429333 
L 452.4696 186.429333 
" clip-path="url(#pffc56e463f)" style="fill: none; stroke-dasharray: 5.365,2.32; stroke-dashoffset: 0; stroke: #b58900; stroke-width: 1.45"/>
   </g>
   <g id="line2d_47">
    <path d="M 282.224337 153.457625 
L 283.935345 154.144901 
L 284.790848 154.718253 
L 286.501856 155.126755 
L 289.068368 156.513998 
L 290.779375 156.937019 
L 293.345887 157.407428 
L 294.201391 157.339086 
L 296.767902 157.976409 
L 297.623406 158.065036 
L 298.47891 158.304479 
L 299.334414 158.669672 
L 300.189917 159.773067 
L 301.045421 160.190886 
L 302.756429 160.612852 
L 304.467437 160.808144 
L 306.178444 160.894239 
L 307.889452 160.761651 
L 308.744956 160.538327 
L 309.60046 159.561629 
L 311.311467 159.035281 
L 315.588986 157.969034 
L 316.44449 159.894039 
L 319.011002 159.767086 
L 320.722009 159.82241 
L 323.288521 160.26886 
L 324.999529 160.685003 
L 325.855032 158.88786 
L 328.421544 159.55704 
L 330.988055 159.999615 
L 333.554567 160.1007 
L 338.68759 160.030831 
L 341.254101 160.361973 
L 343.820613 161.052483 
L 345.531621 161.820237 
L 348.098132 162.562625 
L 349.80914 162.81261 
L 351.520147 162.765673 
L 353.231155 162.304259 
L 356.65317 160.086324 
L 359.219682 158.35409 
L 360.075186 157.904227 
L 360.93069 157.5824 
L 361.786193 157.430301 
L 362.641697 157.462928 
L 363.497201 157.672784 
L 364.352705 158.095422 
L 365.208209 158.713202 
L 366.063713 159.524438 
L 367.77472 161.614266 
L 369.485728 164.176421 
L 374.618751 172.491347 
L 376.329759 174.781903 
L 378.040766 176.522264 
L 378.89627 177.144097 
L 379.751774 177.574541 
L 380.607278 177.808109 
L 381.462782 177.826373 
L 382.318286 177.621432 
L 383.173789 177.197841 
L 384.029293 176.554698 
L 384.884797 175.68852 
L 385.740301 174.616962 
L 387.451309 171.941708 
L 389.162316 168.671164 
L 392.584332 161.514966 
L 393.439835 161.594449 
L 396.006347 156.226942 
L 397.717355 153.030833 
L 399.428362 150.274912 
L 401.994874 146.826806 
L 402.850378 144.107586 
L 403.705881 143.534657 
L 404.561385 143.160104 
L 405.416889 142.957076 
L 406.272393 142.984592 
L 407.127897 143.241561 
L 407.983401 143.709406 
L 408.838904 144.383469 
L 409.694408 145.240534 
L 410.549912 146.273674 
L 412.26092 148.786071 
L 417.393943 156.838915 
L 419.10495 158.965135 
L 420.815958 160.595945 
L 422.526966 161.841337 
L 424.237973 162.68135 
L 425.948981 163.244886 
L 427.659989 163.549002 
L 429.370996 163.609964 
L 431.082004 163.442968 
L 434.504019 162.660277 
L 436.215027 162.304482 
L 437.926035 162.143829 
L 439.637042 162.243742 
L 444.770065 163.014161 
L 446.481073 162.832381 
L 452.4696 161.082804 
L 452.4696 161.082804 
" clip-path="url(#pffc56e463f)" style="fill: none; stroke-dasharray: 9.28,2.32,1.45,2.32; stroke-dashoffset: 0; stroke: #d55e00; stroke-width: 1.45"/>
   </g>
   <g id="line2d_48">
    <path d="M 282.224337 173.535263 
L 283.935345 172.986085 
L 284.790848 172.047019 
L 286.501856 171.454308 
L 287.35736 170.891614 
L 288.212864 170.08893 
L 290.779375 168.238856 
L 292.490383 167.205463 
L 293.345887 166.815813 
L 294.201391 167.012034 
L 295.056894 166.688264 
L 296.767902 166.626399 
L 297.623406 166.935907 
L 298.47891 167.117672 
L 299.334414 166.958373 
L 300.189917 164.857581 
L 301.045421 164.496524 
L 303.611933 164.852875 
L 304.467437 165.025062 
L 305.32294 165.077444 
L 307.889452 166.002229 
L 308.744956 166.679288 
L 309.60046 169.204693 
L 310.455963 169.901597 
L 313.877979 171.433529 
L 314.733483 172.011996 
L 315.588986 172.117721 
L 316.44449 167.305237 
L 319.011002 168.175654 
L 319.866506 168.651061 
L 322.433017 169.591923 
L 323.288521 169.8003 
L 324.144025 169.825993 
L 324.999529 170.003793 
L 325.855032 175.03278 
L 327.56604 174.762102 
L 329.277048 174.299947 
L 330.988055 173.600874 
L 332.699063 172.657035 
L 334.410071 171.486438 
L 336.121078 170.107875 
L 338.68759 167.667678 
L 342.965109 163.406613 
L 343.820613 162.645532 
L 344.676117 161.542851 
L 345.531621 160.875601 
L 347.242628 159.956299 
L 348.098132 159.653672 
L 348.953636 159.476899 
L 349.80914 159.436623 
L 350.664644 159.532771 
L 351.520147 159.750754 
L 352.375651 160.126739 
L 353.231155 160.627998 
L 354.086659 161.656403 
L 355.797667 163.272058 
L 359.219682 167.124778 
L 362.641697 171.125119 
L 365.208209 173.669925 
L 368.630224 176.570602 
L 371.196736 178.323849 
L 373.763247 179.814611 
L 376.329759 180.969467 
L 378.040766 181.534073 
L 379.751774 181.939383 
L 382.318286 182.289292 
L 384.884797 182.372081 
L 387.451309 182.174045 
L 389.162316 181.873713 
L 390.873324 181.411445 
L 391.728828 181.111065 
L 392.584332 180.153881 
L 393.439835 175.525884 
L 395.150843 174.578655 
L 397.717355 172.845945 
L 401.13937 170.313948 
L 401.994874 170.346758 
L 402.850378 174.052226 
L 404.561385 173.211462 
L 406.272393 172.706595 
L 407.983401 172.546569 
L 409.694408 172.716562 
L 412.26092 173.316186 
L 415.682935 174.519648 
L 418.249447 175.427098 
L 420.815958 176.096389 
L 422.526966 176.278039 
L 424.237973 176.233925 
L 425.948981 175.884263 
L 427.659989 175.28877 
L 431.082004 173.712391 
L 433.648516 172.558587 
L 435.359523 171.954633 
L 437.070531 171.518742 
L 439.637042 171.144563 
L 442.203554 171.056017 
L 445.625569 171.306933 
L 449.903088 171.662166 
L 452.4696 171.796585 
L 452.4696 171.796585 
" clip-path="url(#pffc56e463f)" style="fill: none; stroke-dasharray: 1.45,2.3925; stroke-dashoffset: 0; stroke: #777777; stroke-width: 1.45"/>
   </g>
   <g id="patch_6">
    <path d="M 282.224337 195.383241 
L 282.224337 77.453853 
" style="fill: none; stroke: #000000; stroke-width: 0.8; stroke-linejoin: miter; stroke-linecap: square"/>
   </g>
   <g id="patch_7">
    <path d="M 282.224337 195.383241 
L 452.4696 195.383241 
" style="fill: none; stroke: #000000; stroke-width: 0.8; stroke-linejoin: miter; stroke-linecap: square"/>
   </g>
   <g id="text_36">
    <text style="font-size: 7.2px; font-family: 'Arial', 'Helvetica', 'DejaVu Sans', sans-serif; text-anchor: end; fill: #555555" x="450.767147" y="87.412825" transform="rotate(-0 450.767147 87.412825)">11-node smoothing for display only</text>
   </g>
   <g id="text_37">
    <text style="font-weight: 700; font-size: 8.6px; font-family: 'Arial', 'Helvetica', 'DejaVu Sans', sans-serif; text-anchor: start" x="265.199811" y="70.926814" transform="rotate(-0 265.199811 70.926814)">b</text>
   </g>
   <g id="text_38">
    <text style="font-size: 8.4px; font-family: 'Arial', 'Helvetica', 'DejaVu Sans', sans-serif; text-anchor: middle" x="367.346968" y="71.453853" transform="rotate(-0 367.346968 71.453853)">Aggregated body displacement magnitude</text>
   </g>
  </g>
  <g id="axes_4">
   <g id="patch_8">
    <path d="M 64.3104 318.816 
L 452.4696 318.816 
L 452.4696 231.548253 
L 64.3104 231.548253 
z
" style="fill: #ffffff"/>
   </g>
   <g id="matplotlib.axis_5">
    <g id="xtick_13">
     <g id="line2d_49">
      <path d="M 64.3104 318.816 
L 64.3104 231.548253 
" clip-path="url(#p52c12a675e)" style="fill: none; stroke: #e1e1e1; stroke-width: 0.55; stroke-linecap: square"/>
     </g>
     <g id="line2d_50">
      <g>
       <use xlink:href="#m29d4917c07" x="64.3104" y="318.816" style="stroke: #000000; stroke-width: 0.8"/>
      </g>
     </g>
     <g id="text_39">
      <text style="font-size: 7.2px; font-family: 'Arial', 'Helvetica', 'DejaVu Sans', sans-serif; text-anchor: middle" x="64.3104" y="330.557797" transform="rotate(-0 64.3104 330.557797)">0</text>
     </g>
    </g>
    <g id="xtick_14">
     <g id="line2d_51">
      <path d="M 141.94224 318.816 
L 141.94224 231.548253 
" clip-path="url(#p52c12a675e)" style="fill: none; stroke: #e1e1e1; stroke-width: 0.55; stroke-linecap: square"/>
     </g>
     <g id="line2d_52">
      <g>
       <use xlink:href="#m29d4917c07" x="141.94224" y="318.816" style="stroke: #000000; stroke-width: 0.8"/>
      </g>
     </g>
     <g id="text_40">
      <text style="font-size: 7.2px; font-family: 'Arial', 'Helvetica', 'DejaVu Sans', sans-serif; text-anchor: middle" x="141.94224" y="330.557797" transform="rotate(-0 141.94224 330.557797)">20</text>
     </g>
    </g>
    <g id="xtick_15">
     <g id="line2d_53">
      <path d="M 219.57408 318.816 
L 219.57408 231.548253 
" clip-path="url(#p52c12a675e)" style="fill: none; stroke: #e1e1e1; stroke-width: 0.55; stroke-linecap: square"/>
     </g>
     <g id="line2d_54">
      <g>
       <use xlink:href="#m29d4917c07" x="219.57408" y="318.816" style="stroke: #000000; stroke-width: 0.8"/>
      </g>
     </g>
     <g id="text_41">
      <text style="font-size: 7.2px; font-family: 'Arial', 'Helvetica', 'DejaVu Sans', sans-serif; text-anchor: middle" x="219.57408" y="330.557797" transform="rotate(-0 219.57408 330.557797)">40</text>
     </g>
    </g>
    <g id="xtick_16">
     <g id="line2d_55">
      <path d="M 297.20592 318.816 
L 297.20592 231.548253 
" clip-path="url(#p52c12a675e)" style="fill: none; stroke: #e1e1e1; stroke-width: 0.55; stroke-linecap: square"/>
     </g>
     <g id="line2d_56">
      <g>
       <use xlink:href="#m29d4917c07" x="297.20592" y="318.816" style="stroke: #000000; stroke-width: 0.8"/>
      </g>
     </g>
     <g id="text_42">
      <text style="font-size: 7.2px; font-family: 'Arial', 'Helvetica', 'DejaVu Sans', sans-serif; text-anchor: middle" x="297.20592" y="330.557797" transform="rotate(-0 297.20592 330.557797)">60</text>
     </g>
    </g>
    <g id="xtick_17">
     <g id="line2d_57">
      <path d="M 374.83776 318.816 
L 374.83776 231.548253 
" clip-path="url(#p52c12a675e)" style="fill: none; stroke: #e1e1e1; stroke-width: 0.55; stroke-linecap: square"/>
     </g>
     <g id="line2d_58">
      <g>
       <use xlink:href="#m29d4917c07" x="374.83776" y="318.816" style="stroke: #000000; stroke-width: 0.8"/>
      </g>
     </g>
     <g id="text_43">
      <text style="font-size: 7.2px; font-family: 'Arial', 'Helvetica', 'DejaVu Sans', sans-serif; text-anchor: middle" x="374.83776" y="330.557797" transform="rotate(-0 374.83776 330.557797)">80</text>
     </g>
    </g>
    <g id="xtick_18">
     <g id="line2d_59">
      <path d="M 452.4696 318.816 
L 452.4696 231.548253 
" clip-path="url(#p52c12a675e)" style="fill: none; stroke: #e1e1e1; stroke-width: 0.55; stroke-linecap: square"/>
     </g>
     <g id="line2d_60">
      <g>
       <use xlink:href="#m29d4917c07" x="452.4696" y="318.816" style="stroke: #000000; stroke-width: 0.8"/>
      </g>
     </g>
     <g id="text_44">
      <text style="font-size: 7.2px; font-family: 'Arial', 'Helvetica', 'DejaVu Sans', sans-serif; text-anchor: middle" x="452.4696" y="330.557797" transform="rotate(-0 452.4696 330.557797)">100</text>
     </g>
    </g>
    <g id="text_45">
     <text style="font-size: 7.8px; font-family: 'Arial', 'Helvetica', 'DejaVu Sans', sans-serif; text-anchor: middle" x="258.39" y="341.751645" transform="rotate(-0 258.39 341.751645)">Proportion of integrated total dispersion (%)</text>
    </g>
   </g>
   <g id="matplotlib.axis_6">
    <g id="ytick_13">
     <g id="line2d_61">
      <g>
       <use xlink:href="#m9a08cc84c5" x="64.3104" y="249.085312" style="stroke: #000000; stroke-width: 0.8"/>
      </g>
     </g>
     <g id="text_46">
      <text style="font-size: 7.2px; font-family: 'Arial', 'Helvetica', 'DejaVu Sans', sans-serif; text-anchor: end" x="57.8104" y="251.706211" transform="rotate(-0 57.8104 251.706211)">Racket</text>
     </g>
    </g>
    <g id="ytick_14">
     <g id="line2d_62">
      <g>
       <use xlink:href="#m9a08cc84c5" x="64.3104" y="301.278941" style="stroke: #000000; stroke-width: 0.8"/>
      </g>
     </g>
     <g id="text_47">
      <text style="font-size: 7.2px; font-family: 'Arial', 'Helvetica', 'DejaVu Sans', sans-serif; text-anchor: end" x="57.8104" y="303.899839" transform="rotate(-0 57.8104 303.899839)">Aggregated body</text>
     </g>
    </g>
   </g>
   <g id="patch_9">
    <path d="M 64.3104 235.514969 
L 185.318212 235.514969 
L 185.318212 262.655656 
L 64.3104 262.655656 
z
" clip-path="url(#p52c12a675e)" style="fill: #0072b2; stroke: #ffffff; stroke-width: 0.7; stroke-linejoin: miter"/>
   </g>
   <g id="patch_10">
    <path d="M 64.3104 287.708597 
L 258.410486 287.708597 
L 258.410486 314.849284 
L 64.3104 314.849284 
z
" clip-path="url(#p52c12a675e)" style="fill: #0072b2; stroke: #ffffff; stroke-width: 0.7; stroke-linejoin: miter"/>
   </g>
   <g id="patch_11">
    <path d="M 185.318212 235.514969 
L 191.047755 235.514969 
L 191.047755 262.655656 
L 185.318212 262.655656 
z
" clip-path="url(#p52c12a675e)" style="fill: #b58900; stroke: #ffffff; stroke-width: 0.7; stroke-linejoin: miter"/>
   </g>
   <g id="patch_12">
    <path d="M 258.410486 287.708597 
L 275.563566 287.708597 
L 275.563566 314.849284 
L 258.410486 314.849284 
z
" clip-path="url(#p52c12a675e)" style="fill: #b58900; stroke: #ffffff; stroke-width: 0.7; stroke-linejoin: miter"/>
   </g>
   <g id="patch_13">
    <path d="M 191.047755 235.514969 
L 303.770713 235.514969 
L 303.770713 262.655656 
L 191.047755 262.655656 
z
" clip-path="url(#p52c12a675e)" style="fill: #d55e00; stroke: #ffffff; stroke-width: 0.7; stroke-linejoin: miter"/>
   </g>
   <g id="patch_14">
    <path d="M 275.563566 287.708597 
L 380.596994 287.708597 
L 380.596994 314.849284 
L 275.563566 314.849284 
z
" clip-path="url(#p52c12a675e)" style="fill: #d55e00; stroke: #ffffff; stroke-width: 0.7; stroke-linejoin: miter"/>
   </g>
   <g id="patch_15">
    <path d="M 303.770713 235.514969 
L 452.4696 235.514969 
L 452.4696 262.655656 
L 303.770713 262.655656 
z
" clip-path="url(#p52c12a675e)" style="fill: #777777; stroke: #ffffff; stroke-width: 0.7; stroke-linejoin: miter"/>
   </g>
   <g id="patch_16">
    <path d="M 380.596994 287.708597 
L 452.4696 287.708597 
L 452.4696 314.849284 
L 380.596994 314.849284 
z
" clip-path="url(#p52c12a675e)" style="fill: #777777; stroke: #ffffff; stroke-width: 0.7; stroke-linejoin: miter"/>
   </g>
   <g id="patch_17">
    <path d="M 64.3104 318.816 
L 64.3104 231.548253 
" style="fill: none; stroke: #000000; stroke-width: 0.8; stroke-linejoin: miter; stroke-linecap: square"/>
   </g>
   <g id="patch_18">
    <path d="M 64.3104 318.816 
L 452.4696 318.816 
" style="fill: none; stroke: #000000; stroke-width: 0.8; stroke-linejoin: miter; stroke-linecap: square"/>
   </g>
   <g id="text_48">
    <text style="font-weight: 700; font-size: 7.2px; font-family: 'Arial', 'Helvetica', 'DejaVu Sans', sans-serif; text-anchor: middle; fill: #ffffff" x="124.814306" y="250.948594" transform="rotate(-0 124.814306 250.948594)">31.2%</text>
   </g>
   <g id="text_49">
    <text style="font-weight: 700; font-size: 7.2px; font-family: 'Arial', 'Helvetica', 'DejaVu Sans', sans-serif; text-anchor: middle; fill: #ffffff" x="161.360443" y="303.142222" transform="rotate(-0 161.360443 303.142222)">50.0%</text>
   </g>
   <g id="patch_19">
    <path d="M 188.182984 238.718233 
Q 188.182984 242.900752 188.182984 247.083271 
" style="fill: none; stroke: #555555; stroke-width: 0.8; stroke-linecap: round"/>
   </g>
   <g id="text_50">
    <text style="font-size: 7.2px; font-family: 'Arial', 'Helvetica', 'DejaVu Sans', sans-serif; text-anchor: middle" x="188.182984" y="233.20276" transform="rotate(-0 188.182984 233.20276)">1.5%</text>
   </g>
   <g id="patch_20">
    <path d="M 266.987026 290.911861 
Q 266.987026 295.094381 266.987026 299.2769 
" style="fill: none; stroke: #555555; stroke-width: 0.8; stroke-linecap: round"/>
   </g>
   <g id="text_51">
    <text style="font-size: 7.2px; font-family: 'Arial', 'Helvetica', 'DejaVu Sans', sans-serif; text-anchor: middle" x="266.987026" y="285.396388" transform="rotate(-0 266.987026 285.396388)">4.4%</text>
   </g>
   <g id="text_52">
    <text style="font-weight: 700; font-size: 7.2px; font-family: 'Arial', 'Helvetica', 'DejaVu Sans', sans-serif; text-anchor: middle; fill: #ffffff" x="247.409234" y="250.948594" transform="rotate(-0 247.409234 250.948594)">29.0%</text>
   </g>
   <g id="text_53">
    <text style="font-weight: 700; font-size: 7.2px; font-family: 'Arial', 'Helvetica', 'DejaVu Sans', sans-serif; text-anchor: middle; fill: #ffffff" x="328.08028" y="303.142222" transform="rotate(-0 328.08028 303.142222)">27.1%</text>
   </g>
   <g id="text_54">
    <text style="font-weight: 700; font-size: 7.2px; font-family: 'Arial', 'Helvetica', 'DejaVu Sans', sans-serif; text-anchor: middle; fill: #ffffff" x="378.120156" y="250.948594" transform="rotate(-0 378.120156 250.948594)">38.3%</text>
   </g>
   <g id="text_55">
    <text style="font-weight: 700; font-size: 7.2px; font-family: 'Arial', 'Helvetica', 'DejaVu Sans', sans-serif; text-anchor: middle; fill: #ffffff" x="416.533297" y="303.142222" transform="rotate(-0 416.533297 303.142222)">18.5%</text>
   </g>
   <g id="text_56">
    <text style="font-weight: 700; font-size: 8.6px; font-family: 'Arial', 'Helvetica', 'DejaVu Sans', sans-serif; text-anchor: start" x="42.961644" y="226.24768" transform="rotate(-0 42.961644 226.24768)">c</text>
   </g>
  </g>
 </g>
 <defs>
  <clipPath id="p385039097a">
   <rect x="64.3104" y="77.453853" width="170.245263" height="117.929388"/>
  </clipPath>
  <clipPath id="pffc56e463f">
   <rect x="282.224337" y="77.453853" width="170.245263" height="117.929388"/>
  </clipPath>
  <clipPath id="p52c12a675e">
   <rect x="64.3104" y="231.548253" width="388.1592" height="87.267747"/>
  </clipPath>
 </defs>
</svg>
